<?xml version="1.0" standalone="no"?>
<!DOCTYPE svg PUBLIC "-//W3C//DTD SVG 20010904//EN"
 "http://www.w3.org/TR/2001/REC-SVG-20010904/DTD/svg10.dtd">
<svg version="1.0" xmlns="http://www.w3.org/2000/svg"
 width="500.000000pt" height="500.000000pt" viewBox="0 0 500.000000 500.000000"
 preserveAspectRatio="xMidYMid meet">
<metadata>
Created by potrace 1.11, written by Peter Selinger 2001-2013
</metadata>
<g transform="translate(0.000000,500.000000) scale(0.100000,-0.100000)"
fill="#000000" stroke="none">
<path d="M144 4976 c-59 -27 -116 -90 -132 -145 -9 -28 -12 -621 -12 -2337 l0
-2299 24 -51 c27 -59 90 -116 145 -132 28 -9 621 -12 2337 -12 l2299 0 51 24
c59 27 116 90 132 145 9 28 12 621 12 2337 l0 2299 -24 51 c-27 59 -90 116
-145 132 -28 9 -621 12 -2337 12 l-2299 0 -51 -24z m2451 -1967 c137 -308 252
-562 256 -564 3 -3 49 14 100 36 91 39 258 110 444 189 50 21 191 82 315 135
124 53 266 114 315 135 50 20 153 64 230 98 77 33 163 70 190 82 74 32 43 9
-70 -53 -105 -56 -215 -117 -480 -262 -160 -88 -308 -169 -440 -240 -38 -21
-140 -76 -225 -123 -85 -47 -202 -111 -260 -142 -58 -31 -152 -83 -210 -115
-58 -32 -152 -84 -210 -115 -151 -82 -658 -359 -705 -385 -22 -12 -94 -51
-160 -87 -66 -37 -140 -78 -165 -92 -25 -14 -50 -26 -56 -26 -7 0 28 93 76
208 48 114 143 338 210 497 67 160 160 378 205 485 108 255 236 557 316 747
35 84 67 153 70 153 3 0 117 -252 254 -561z m503 -1173 c23 -52 45 -101 48
-110 5 -14 -12 -16 -170 -16 l-176 0 0 34 c0 33 5 37 123 110 67 41 125 75
128 76 3 0 24 -42 47 -94z"/>
<path d="M2319 2874 c-6 -16 -26 -72 -44 -124 -33 -95 -98 -276 -174 -489 -23
-63 -40 -115 -38 -117 1 -1 52 20 112 48 61 27 171 76 245 109 74 34 137 62
139 64 6 6 -209 518 -223 532 -3 3 -11 -7 -17 -23z"/>
</g>
</svg>
